Simulation
nRows=32
nColumns=15
endheader
time  TH_x TH_y TH_z SC_y  SC_z  SC_x  AC_y  AC_z  AC_x  GH_y  GH_z  GH_yy  EL_x  PS_y
0.0  0.000000  0.000000  0.000000  -30.64537721885042  -1.6481770187610838  11.726248029620379  57.042187915158586  -6.4047282859601715  -12.850625240140404  17.848019720121766  -0.008829538813828837  6.17608762978195  25.510301720992192  0.000000
0.015  0.000000  0.000000  0.000000  -30.73581488720778  -1.7302051056307788  11.774793203559517  57.09394340495361  -6.36999192499039  -12.861188971576828  17.766631262093245  0.24752337337945932  6.07171824235423  25.536678501001166  0.000000
0.03  0.000000  0.000000  0.000000  -30.705085231428917  -1.7064218204710595  11.835492641368912  57.148662582510056  -6.392876028594784  -12.857718476084546  17.782298857129323  0.5411664381333958  5.998477623723416  25.55573377295905  0.000000
0.045  0.000000  0.000000  0.000000  -30.724742282011814  -1.665871942045342  11.915127291858358  57.16733222740491  -6.426054602357726  -12.860691815058804  17.85679086192948  0.88557440850946  5.885700343872005  25.542969843130372  0.000000
0.06  0.000000  0.000000  0.000000  -30.75618765714246  -1.6313768824090333  12.002942537362529  57.1741867535195  -6.46912396743382  -12.877314829591068  17.933680817471533  1.2771634948992052  5.669570207703788  25.5130650014633  0.000000
0.075  0.000000  0.000000  0.000000  -30.809119531408324  -1.6013900241766  12.102540139165264  57.189511010213415  -6.520043740310657  -12.901911123063853  18.03461878730281  1.7203181079139527  5.376414539532901  25.465826463396624  0.000000
0.09  0.000000  0.000000  0.000000  -30.863453406064192  -1.5708775727079822  12.217169864949408  57.19869663160866  -6.575624642477271  -12.932628355712236  18.14844931264383  2.199510137676486  5.004706571309537  25.41109823206365  0.000000
0.105  0.000000  0.000000  0.000000  -30.919132299383346  -1.537712245017431  12.34381392613533  57.21488890562427  -6.63747863430759  -12.96598330545101  18.274819792245953  2.7199075602073504  4.565648108215754  25.34944709099763  0.000000
0.12  0.000000  0.000000  0.000000  -30.97510315768077  -1.5008124898411404  12.483596638861467  57.232310522910375  -6.701051661846951  -13.002629737694534  18.411636169685217  3.2756145400484264  4.069617555649045  25.28588132776199  0.000000
0.135  0.000000  0.000000  0.000000  -31.029034387485495  -1.4590615787976107  12.634458408841358  57.252517292732136  -6.76567626715236  -13.040638053907488  18.554694984195535  3.865382353402065  3.5238935547829544  25.218609630925403  0.000000
0.15  0.000000  0.000000  0.000000  -31.08172012756095  -1.4131219736040126  12.795004840190275  57.27613380517261  -6.828191197252266  -13.08087483478013  18.701572999137216  4.486970871338793  2.937368089061613  25.149820784426534  0.000000
0.16499999999999998  0.000000  0.000000  0.000000  -31.13234791774689  -1.3628284007910862  12.964375293434916  57.301662539838915  -6.886842470881586  -13.122784028040323  18.849801604384208  5.137083477175312  2.3177650763149438  25.078370800526354  0.000000
0.18  0.000000  0.000000  0.000000  -31.180872776577587  -1.3090310362620339  13.140794617103507  57.330587319599616  -6.939753146424092  -13.166519832848763  18.996471759815787  5.813562930518118  1.671617000718896  25.004812866517117  0.000000
0.195  0.000000  0.000000  0.000000  -31.22751717708701  -1.2521484000582603  13.323247256809605  57.36198898784876  -6.984927303222553  -13.211898294292935  19.1402458492574  6.513300283365858  1.006055771788924  24.928795763042036  0.000000
0.21  0.000000  0.000000  0.000000  -31.272055709524338  -1.1925834240498203  13.509912072182434  57.39657889138136  -7.020616057759704  -13.258506345245346  19.278987391874264  7.233751494036669  0.3265025678453487  24.850266343801096  0.000000
0.22499999999999998  0.000000  0.000000  0.000000  -31.314857911747765  -1.1304122801305996  13.699404799620382  57.43368886892393  -7.0446796756429  -13.306037394394732  19.41189683789758  7.97212232712098  -0.3611526591783297  24.769291386106886  0.000000
0.24  0.000000  0.000000  0.000000  -31.355903780705933  -1.0656935787322328  13.890548581667279  57.47380754761244  -7.05588218164438  -13.354081784660178  19.537365034651618  8.726245257522317  -1.0527221332885073  24.685973084605322  0.000000
0.255  0.000000  0.000000  0.000000  -31.395420613521733  -0.9986438907576775  14.082474026657948  57.516511499245944  -7.052530091507196  -13.402127202623733  19.654809351479805  9.493998579559744  -1.7436632010380493  24.600149296650983  0.000000
0.27  0.000000  0.000000  0.000000  -31.433427341074573  -0.9293562303245256  14.273438040956815  57.56238604711768  -7.032890301186816  -13.449256608421267  19.76301567123364  10.274006327958276  -2.430904808673482  24.51182846941288  0.000000
0.285  0.000000  0.000000  0.000000  -31.470034852481664  -0.8574367675577266  14.461888661263949  57.610908546954605  -6.994874538153721  -13.494677725602836  19.861400746307837  11.064831428225038  -3.1113144441525553  24.421086752682463  0.000000
0.3  0.000000  0.000000  0.000000  -31.505387266984282  -0.7824101115604304  14.647040646731867  57.66187531677443  -6.936794798219152  -13.538106328630485  19.949414588298126  11.865234015675075  -3.7823496405777997  24.32802807254033  0.000000
0.315  0.000000  0.000000  0.000000  -31.539773507810292  -0.7040454091120957  14.829066472582841  57.7143043803354  -6.857608662682353  -13.579875553450623  20.026748637528847  12.674037494915588  -4.441650930647902  24.232523376932754  0.000000
0.32999999999999996  0.000000  0.000000  0.000000  -31.57424754148154  -0.6227745273975945  15.008467468672558  57.768641294034865  -6.757204328913797  -13.620448394714163  20.092710619632527  13.490517425815979  -5.087945545796869  24.13427393648208  0.000000
0.345  0.000000  0.000000  0.000000  -31.61026520763657  -0.5384867502673586  15.186048511182584  57.825570995477975  -6.635588146445243  -13.65970843647484  20.14714633832758  14.313294868120831  -5.719663907050732  24.033573890028244  0.000000
0.36  0.000000  0.000000  0.000000  -31.648557362301638  -0.45006879298118285  15.361568683658321  57.88703927448161  -6.49321949765238  -13.69578433647615  20.19000235218744  15.140633590900388  -6.336141952853901  23.93073993255887  0.000000
0.375  0.000000  0.000000  0.000000  -31.69048102491357  -0.35770801907717437  15.533251950150884  57.95459067205699  -6.32963720935475  -13.725577986211796  20.222419134061404  15.970463356756401  -6.935668116941362  23.82545688899699  0.000000
0.39  0.000000  0.000000  0.000000  -31.735664188083113  -0.26234885413810044  15.696292152877191  58.03020284702185  -6.1432092009930965  -13.744644685462871  20.244846509701706  16.799956242779434  -7.5182631840374095  23.71721535882627  0.000000
0.40499999999999997  0.000000  0.000000  0.000000  -31.783082331085918  -0.16414933992788405  15.845850991847149  58.11359400897414  -5.9321952523661565  -13.747924062616976  20.25857374748347  17.624717161644245  -8.082847598085042  23.60601178108988  0.000000
0.42  0.000000  0.000000  0.000000  -31.831258173548672  -0.06162561418626906  15.977987067091663  58.20606718206556  -5.69702310941618  -13.730429406724994  20.26523148891974  18.440527493308156  -8.629229043224177  23.491165056311807  0.000000
0.435  0.000000  0.000000  0.000000  -31.880432335818117  0.04600401909439746  16.09046361156612  58.307989424509294  -5.439166856747999  -13.687811774921727  20.266352026281574  19.244055954501675  -9.157540968059783  23.3721087002796  0.000000
0.44999999999999996  0.000000  0.000000  0.000000  -31.934700313139555  0.15746223715042282  16.189845824132192  58.41888883340712  -5.164689910669552  -13.61968139468263  20.26409111026598  20.032809558279308  -9.667453065425823  23.24928827482708  0.000000
0.46499999999999997  0.000000  0.000000  0.000000  -31.996190081700988  0.2723600921296702  16.28957173736933  58.542214472645945  -4.88461224569892  -13.530806047376997  20.260765005183583  20.80621426092048  -10.159555192083841  23.121595567739956  0.000000
